<svg xmlns="http://www.w3.org/2000/svg" width="560" height="374" version="1">
  <g fill-rule="evenodd">
    <path fill="#ffc701" d="M458.8 47s4 58-12 70-134 131-134 131l22 25 143-97 11-127-30-2z"/>
    <path d="M458.8 47s4 58-12 70-134 131-134 131l22 25 143-97 11-127-30-2z" opacity=".7"/>
    <path fill="#ffc701" d="M453.5 9L417 63.7s-29.3 7.4-44 16.6c-15 9.2-61.5 43.3-164.6 36C105.4 109 90 87 67.6 86c-22.4-.7-56 3-64.3 9.4-8.2 6.3 1.6 25 1.6 25s29 67.5 139 95c109 28 238-29.2 238-29.2l90-165.5L453 9z"/>
    <path fill="#fff" d="M450.6 13.4L417 63.7s-29.3 7.4-44 16.6c-15 9.2-61.5 43.3-164.6 36C105.4 109 90 87 67.6 86c-22.4-.7-56 3-64.3 9.5-.4.2-.7.6-1 1C21.6 93.5 50 94 70 97.7c38.4 7 73.6 30.3 163 28 127.4-3.6 142.3-43.2 160-48 24.6-6.4 71-16 57.6-64.3z" opacity=".4"/>
    <path d="M40.6 164C62 182.8 95 203 144 215.6c11.7 3 23.7 5 35.7 6.2l38.8-8C154.2 224 76 184.8 40.5 164z" opacity=".4"/>
    <path fill="#ffc701" d="M461.8 48s21 55 15 69-41 94-106 124-232 26-236 18 0 76 101 107 230-37 253-59c29-28 84-100 68-154s-28-38-37-53-19-44-19-56-38 4-39 4z"/>
    <path d="M467.3 137c-15.2 29.7-47.2 81.2-96.5 104-65 30-232 26-236 18-1-2-1.5 1.8 0 9l2 7h-.4c0 .5.2 1 .3 1.2l.5 1.5c.2 1 .6 2 1 2.8 0 .3 0 .7.2 1l.8 2 .8 2 .8 1.8 1 2.2c0 .4.3.7.4 1 1 2.5 2.3 5 3.7 7.4l1 2 1 2 1 2 1 2.2c41 18 185-16.5 250-64 46-33.3 61-79.8 66-106z" opacity=".6"/>
    <path d="M493.4 39.7c-1.6 0-3.4 0-5.3.4 7 20 37 113 34 131-3 20-35 93-87 124-35 21-111 54-138 59-17 3-50 8-76 7 5 2 11 4 16 5.7 101 31 230-37 253-59 29-28 84-100 68-154s-28-38-37-53-19-44-19-56c0-3.2-3-4.4-7-4.3z" opacity=".4"/>
    <path fill="#ffc701" d="M466.8 58s-19 19-14 37 22 62-41 112-246 137-369 42c-35-40-15-66-15-66s20-3 28-2c10-3 57 0 101 2 59-1 220-76 251-105 0 0 38-46 39-54s27 16 28 23-8 10-8 11z"/>
    <path fill="#fff" d="M448.2 22.4c-.8 0-1.3.6-1.4 1.6-1 8-39 54-39 54-31 29-192 104-251 105-44-2-91-5-101-2-8-1-28 2-28 2l-1 1.5c11 3.2 31 7.6 63.2 8.5 74.4 2 105.6-2 170-27.2 68-26 158.5-60 194-141-2.4-1-4.5-2-5.8-2z" opacity=".4"/>
    <path d="M452.2 92.3C444 120.3 411 195 283.8 238c-155.5 52.8-193.4 22.5-243.6 8 1 1 1.7 2 2.6 3 123 95 306 8 369-42s46-94 41-112l-.6-2.7z" opacity=".4"/>
    <path fill="#884a13" d="M468 .7c-5.7-1.4-25.7 14.4-25.3 19.7.3 5.3 19.5 22.4 31.6 26.6 4 1 26-1 27-5s1-21-3-25S474.8 2.5 468 .7z"/>
    <path fill="#884a13" d="M468 .7c-5.7-1.4-25.7 14.4-25.3 19.7.3 5.3 19.5 22.4 31.6 26.6 4 1 26-1 27-5s1-21-3-25S474.8 2.5 468 .7z"/>
    <path fill="#fff" d="M467 .7c-7 .5-24.6 14.7-24.3 19.7 0 2 3.3 6.2 8 10.5.2-9 4.3-21 23.6-28L468 0h-1z" opacity=".3"/>
    <path d="M498.2 17c.2 18.2-15.5 26-26.4 29l2.5 1c4 1 26-1 27-5s1-21-3-25z" opacity=".4"/>
  </g>
</svg>
